<svg width="70" height="70" viewBox="0 0 70 70" fill="none" xmlns="http://www.w3.org/2000/svg">
<circle cx="35" cy="35" r="34.5" stroke="#BC863D"/>
<path d="M44.906 37.4314H36.3281V36.2078H44.906C47.8885 36.2078 50.3145 33.7814 50.3145 30.799C50.3145 29.3528 49.7523 27.9941 48.7317 26.9733C47.711 25.9527 46.3522 25.3905 44.906 25.3905H40.7639V24.1667H44.906C46.6791 24.1667 48.3452 24.8563 49.5969 26.108C50.8486 27.3597 51.5382 29.0259 51.5382 30.7989C51.5382 34.4562 48.5629 37.4314 44.906 37.4314Z" fill="#BC863D"/>
<path d="M32.0469 48.2424H47.3671V49.4661H32.0469V48.2424Z" fill="#BC863D"/>
<path d="M27.66 49.4662H25.8981C22.2409 49.4662 19.2656 46.491 19.2656 42.8337C19.2656 41.0676 19.9548 39.4021 21.206 38.144C22.4547 36.8949 24.1208 36.2078 25.8981 36.2078H31.9429V37.4314H25.8981C24.4477 37.4314 23.0889 37.9912 22.0724 39.0079C21.0518 40.0342 20.4893 41.3931 20.4893 42.8336C20.4893 45.816 22.9157 48.2424 25.8981 48.2424H27.6601L27.66 49.4662Z" fill="#BC863D"/>
<path d="M23.0234 24.1667H36.3798V25.3904H23.0234V24.1667Z" fill="#BC863D"/>
<path d="M20.8297 27.2902C19.2694 27.2902 18 26.0208 18 24.4605C18 22.9002 19.2694 21.6309 20.8297 21.6309C22.39 21.6309 23.6593 22.9002 23.6593 24.4605C23.6593 26.0208 22.3901 27.2902 20.8297 27.2902ZM20.8297 22.8544C19.9442 22.8544 19.2236 23.5749 19.2236 24.4605C19.2236 25.3461 19.9441 26.0666 20.8297 26.0666C21.7153 26.0666 22.4358 25.3461 22.4358 24.4605C22.4358 23.5749 21.7153 22.8544 20.8297 22.8544Z" fill="#BC863D"/>
<path d="M38.5689 27.2872C37.1723 27.2872 35.9701 26.246 35.773 24.8653C35.7514 24.7469 35.7422 24.608 35.7422 24.4605C35.7422 22.9019 37.0103 21.6338 38.5689 21.6338C40.1308 21.6338 41.4016 22.9019 41.4016 24.4605C41.4016 24.6081 41.3924 24.7469 41.3676 24.8859C41.1737 26.246 39.969 27.2872 38.5689 27.2872ZM38.5689 22.8573C37.6849 22.8573 36.9659 23.5764 36.9659 24.4604C36.9659 24.5332 36.9686 24.6023 36.9808 24.6713C37.0958 25.4737 37.7772 26.0634 38.5689 26.0634C39.3642 26.0634 40.048 25.4736 40.1597 24.6919C40.1752 24.6023 40.178 24.5332 40.178 24.4604C40.1779 23.5765 39.4561 22.8573 38.5689 22.8573Z" fill="#BC863D"/>
<path d="M34.1314 39.328C32.7345 39.328 31.5326 38.2869 31.3355 36.9065C31.3139 36.7876 31.3047 36.6486 31.3047 36.5017C31.3047 34.9396 32.5728 33.6687 34.1314 33.6687C35.6933 33.6687 36.9641 34.9396 36.9641 36.5017C36.9641 36.6486 36.9549 36.7876 36.9301 36.9267C36.7362 38.2869 35.5316 39.328 34.1314 39.328ZM34.1314 34.8923C33.2474 34.8923 32.5284 35.6144 32.5284 36.5016C32.5284 36.5744 32.5311 36.6435 32.5433 36.7128C32.6583 37.5149 33.3397 38.1044 34.1314 38.1044C34.9267 38.1044 35.6105 37.5149 35.7222 36.7331C35.7377 36.6435 35.7405 36.5744 35.7405 36.5016C35.7405 35.6143 35.0187 34.8923 34.1314 34.8923Z" fill="#BC863D"/>
<path d="M29.8562 51.3692C28.4473 51.3692 27.2424 50.3235 27.0536 48.9367C27.0324 48.8221 27.0234 48.6822 27.0234 48.5424C27.0234 46.9806 28.2943 45.7095 29.8562 45.7095C31.4148 45.7095 32.6829 46.9807 32.6829 48.5424C32.6829 48.6823 32.6739 48.8221 32.6488 48.9619C32.4639 50.3235 31.2614 51.3692 29.8562 51.3692ZM29.8562 46.9328C28.9689 46.9328 28.2471 47.6552 28.2471 48.5424C28.2471 48.6106 28.2501 48.6787 28.262 48.7468C28.3726 49.5552 29.0564 50.1456 29.8562 50.1456C30.6526 50.1456 31.3338 49.5552 31.4404 48.7719C31.4563 48.6787 31.4592 48.6106 31.4592 48.5424C31.4592 47.6552 30.7402 46.9328 29.8562 46.9328Z" fill="#BC863D"/>
<path d="M48.7138 50.7574C47.6353 50.7574 46.7578 49.8797 46.7578 48.8013C46.7578 47.7228 47.6352 46.8451 48.7138 46.8451C49.7925 46.8451 50.6699 47.7228 50.6699 48.8013C50.6699 49.8797 49.7925 50.7574 48.7138 50.7574ZM48.7138 48.0687C48.3101 48.0687 47.9815 48.3973 47.9815 48.8011C47.9815 49.205 48.3101 49.5336 48.7138 49.5336C49.1176 49.5336 49.4462 49.205 49.4462 48.8011C49.4462 48.3973 49.1176 48.0687 48.7138 48.0687Z" fill="#BC863D"/>
<path d="M48.7133 40.1522C48.3755 40.1522 48.1016 39.8782 48.1016 39.5404V38.7932C48.1016 38.4553 48.3755 38.1814 48.7133 38.1814C49.0512 38.1814 49.3251 38.4553 49.3251 38.7932V39.5404C49.3252 39.8781 49.0512 40.1522 48.7133 40.1522Z" fill="#BC863D"/>
<path d="M48.7133 48.0686C48.3755 48.0686 48.1016 47.7949 48.1016 47.4568V43.4238C48.1016 43.0859 48.3755 42.812 48.7133 42.812C49.0512 42.812 49.3251 43.0859 49.3251 43.4238V47.4568C49.3252 47.7949 49.0512 48.0686 48.7133 48.0686Z" fill="#BC863D"/>
<path d="M54.3896 44.0357H48.7133C48.3755 44.0357 48.1016 43.7617 48.1016 43.4239V39.5405C48.1016 39.2026 48.3755 38.9287 48.7133 38.9287H54.3896C54.6175 38.9287 54.8264 39.0554 54.9318 39.2573C55.0372 39.459 55.0221 39.7028 54.8918 39.8898L53.7846 41.4817L54.892 43.0746C55.022 43.2617 55.0372 43.5054 54.9318 43.7074C54.8262 43.909 54.6172 44.0357 54.3896 44.0357ZM49.3252 42.812H53.2191L52.5368 41.8309C52.391 41.6209 52.391 41.3421 52.5371 41.1324L53.2189 40.1522H49.3254V42.812H49.3252Z" fill="#BC863D"/>
</svg>
