<svg width="70" height="70" viewBox="0 0 70 70" fill="none" xmlns="http://www.w3.org/2000/svg">
<circle cx="35" cy="35" r="34.5" stroke="#BC863D"/>
<path d="M20.2622 45.2343C20.5001 45.0808 20.8176 45.1492 20.9711 45.3871C21.6848 46.4931 23.0292 46.9273 24.2209 46.5308C23.8998 46.3024 23.5991 46.0444 23.3234 45.7587C23.1268 45.555 23.1326 45.2303 23.3363 45.0337C23.5401 44.837 23.8647 44.8428 24.0613 45.0466C24.4034 45.4011 24.7907 45.705 25.2122 45.9518C25.3937 45.7877 25.5558 45.599 25.6926 45.3871C25.7791 45.2534 25.9292 45.1617 26.0981 45.1535C26.2824 45.1442 26.4573 45.2365 26.5544 45.3871C27.6623 47.1045 30.1691 47.1023 31.2758 45.3871C31.3671 45.2456 31.5291 45.1525 31.7081 45.1527C31.8865 45.1534 32.0468 45.2462 32.1376 45.3871C33.2237 47.0706 35.7081 47.1388 36.8617 45.3834C36.9542 45.2427 37.1141 45.1525 37.2912 45.1528C37.4694 45.1535 37.63 45.2466 37.7207 45.3872C38.8068 47.0707 41.2912 47.1389 42.4448 45.3834C42.5394 45.2395 42.7008 45.1525 42.8744 45.1528C43.052 45.1535 43.2124 45.2458 43.3039 45.3872C43.4404 45.5988 43.6025 45.7874 43.7839 45.9515C45.0755 45.1951 46.0061 43.9073 46.3149 42.4592C44.7167 42.4592 23.7677 42.4592 22.6818 42.4592C22.7314 42.6921 22.7972 42.9232 22.8785 43.149C22.9743 43.4154 22.8361 43.7092 22.5696 43.8051C22.3032 43.9008 22.0094 43.7628 21.9136 43.4963C21.7811 43.1283 21.6829 42.7479 21.6216 42.3658C21.5431 41.8766 21.9228 41.4338 22.4173 41.4338H24.2606L33.9855 19.0941V17.5128C33.9855 17.2296 34.2151 17 34.4983 17C34.7814 17 35.011 17.2295 35.011 17.5128V18.8311C41.7548 21.1936 45.481 29.5809 45.7034 37.3807C45.7158 37.8161 45.5134 38.2192 45.1555 38.4737V41.4335H46.5792C46.8156 41.4335 47.0393 41.5368 47.1927 41.7168C47.3459 41.8965 47.4123 42.133 47.3749 42.3656C47.1032 44.059 46.1679 45.5462 44.7765 46.5311C45.9679 46.927 47.3118 46.4926 48.0251 45.3871C48.1786 45.1492 48.4961 45.0807 48.734 45.2343C48.9719 45.3877 49.0403 45.7052 48.8868 45.9431C47.527 48.0506 44.5647 48.2968 42.8728 46.4936C41.3638 48.1019 38.8001 48.1034 37.2897 46.4936C35.7806 48.1019 33.2169 48.1034 31.7065 46.4936C30.1974 48.1019 27.6337 48.1033 26.1233 46.4936C24.428 48.3005 21.4664 48.0464 20.1093 45.943C19.9558 45.7051 20.0243 45.3877 20.2622 45.2343ZM33.9853 21.6629L25.3787 41.4335H33.9853C33.9853 40.1407 33.9853 22.2503 33.9853 21.6629ZM35.0108 41.4335H44.1301V38.7133H35.0108V41.4335ZM35.0108 19.9245V23.0391H39.4184C38.0973 21.614 36.5977 20.5491 35.0108 19.9245ZM40.2895 24.0646H35.0108V26.6588H41.9658C41.4392 25.6737 40.871 24.8108 40.2895 24.0646ZM43.7895 31.3041H40.4386C40.1554 31.3041 39.9258 31.0746 39.9258 30.7913C39.9258 30.5081 40.1554 30.2785 40.4386 30.2785H43.492C43.2042 29.3811 42.8658 28.5145 42.4788 27.6843H35.0108V30.2785H38.0457C38.3289 30.2785 38.5585 30.508 38.5585 30.7913C38.5585 31.0745 38.3289 31.3041 38.0457 31.3041H35.0108V33.8983H44.3481C44.2056 33.0163 44.0185 32.1471 43.7895 31.3041ZM44.4947 34.9238H35.0108V37.6878H44.4038V37.6877C44.5576 37.6877 44.6827 37.5616 44.6784 37.41C44.6544 36.5688 44.5924 35.7391 44.4947 34.9238Z" fill="#BC863D"/>
<path d="M25.8464 49.534C26.0844 49.3805 26.4018 49.449 26.5552 49.6868C27.6411 51.3697 30.1255 51.4389 31.2794 49.683C31.374 49.5391 31.5352 49.4523 31.7085 49.4524C31.883 49.4528 32.0449 49.5421 32.1384 49.6868C33.2253 51.3714 35.7096 51.4375 36.8626 49.683C36.9552 49.542 37.115 49.4523 37.2914 49.4524C37.4698 49.4528 37.6306 49.5461 37.7216 49.6868C38.8295 51.4041 41.3365 51.4019 42.4431 49.6868C42.5966 49.4488 42.9141 49.3805 43.1519 49.534C43.3898 49.6875 43.4583 50.0049 43.3048 50.2428C41.9453 52.3498 38.9832 52.5969 37.2908 50.7933C35.7819 52.4015 33.2181 52.4031 31.7076 50.7933C30.019 52.593 27.0567 52.3553 25.6936 50.2428C25.54 50.0049 25.6085 49.6875 25.8464 49.534Z" fill="#BC863D"/>
</svg>
