<svg width="230" height="177" viewBox="0 0 230 177" fill="none" xmlns="http://www.w3.org/2000/svg">
<g clip-path="url(#clip0_47_178)">
<path d="M17.2561 164.368C17.2561 161.761 26.1306 153.986 35.3873 151.454C30.8803 151.35 15.0872 159.755 15.0872 164.968C15.0872 167.744 18.4399 168.418 20.7486 168.418C30.2847 168.418 47.6807 160.888 47.6807 153.187C47.6807 149.285 43.5927 147.981 39.6444 146.885C36.1152 145.901 32.7625 145.019 32.7625 142.983C32.7625 139.362 43.0339 133.557 47.5042 133.061C47.9601 133.024 48.4086 132.987 48.7982 132.987C50.1217 132.987 51.0702 133.305 50.8937 134.431C50.4378 137.63 43.6294 141.576 42.1957 141.576C41.9825 141.576 41.7766 141.576 41.7766 141.362C41.7766 140.865 41.9898 140.132 42.5119 139.533C41.8134 139.955 40.4532 141.465 40.4532 142.909C40.4532 143.687 41.4972 143.968 42.2031 143.968C45.9087 143.968 51.9819 139.429 52.0554 135.245C52.0921 132.535 49.9599 131.765 46.7763 131.869C41.6737 132.047 30.3877 136.763 30.3877 142.672C30.3877 145.767 35.1373 146.404 39.3283 147.559C42.7545 148.507 45.6514 149.81 45.6514 151.995C45.6514 157.304 28.601 165.789 20.1824 165.789C19.0648 165.789 17.2488 165.752 17.2488 164.383L17.2561 164.368ZM56.9521 157.718C56.8124 158.244 56.6727 158.666 56.6727 159.022C56.6727 159.658 57.3345 160.391 57.8271 160.673C58.0697 160.814 58.2462 160.888 58.4226 160.888C60.5181 160.888 66.2162 155.008 69.2528 151.669C69.3557 151.565 69.1793 151.284 69.0102 151.454C66.8412 153.49 61.8489 158.318 59.6505 158.948C59.6505 158.666 59.7902 158.244 60.0034 157.755C61.0475 155.504 64.1943 151.669 64.3708 152.024C64.5105 151.602 63.3267 149.67 62.6209 150.018C61.7459 150.514 59.474 152.728 58.8491 153.29C57.033 154.838 52.1436 158.392 50.9893 158.777C50.8863 158.814 50.8128 158.814 50.7466 158.777C50.4305 158.6 53.0553 154.164 56.3713 151.321C58.6432 149.388 61.1945 147.907 63.2164 147.804C64.2678 147.73 64.9296 148.263 64.9296 149.314C64.9296 149.84 64.7163 150.262 64.5472 150.58C64.5105 150.617 64.584 150.654 64.6502 150.617C65.0031 150.158 65.3119 149.559 65.3119 148.966C65.3119 147.315 63.562 146.752 62.2386 146.752C55.8125 146.752 47.813 154.601 47.813 158.437C47.813 159.14 48.7174 160.48 49.3497 160.791C49.4232 160.828 49.5923 160.895 49.6658 160.895C51.1363 160.895 57.9447 154.986 58.9961 153.927C58.3344 154.808 57.3859 156.423 56.9668 157.726L56.9521 157.718ZM66.2751 160.888C68.444 160.71 73.9952 154.979 77.0391 151.669C77.142 151.565 76.9729 151.284 76.7229 151.454C74.5907 153.527 69.4881 158.422 67.3632 158.985C67.7823 157.541 72.5688 149.521 74.0025 149.662C74.2819 149.699 74.4584 149.877 74.4584 149.729C74.4584 148.848 73.0614 147.441 72.26 147.441C72.1203 147.441 71.9144 147.478 71.7379 147.656C69.5028 149.447 64.4369 157.119 64.4369 159.162C64.4369 159.792 65.3119 160.673 65.8707 160.851C66.0471 160.888 66.1501 160.888 66.2898 160.888H66.2751ZM75.4951 142.065C74.5907 142.346 73.2599 144.634 73.2967 145.656C73.3334 146.293 74.0613 147.026 74.5539 146.397C74.973 145.797 76.5832 144.353 77.1714 144.109C77.5538 143.931 77.8331 144.072 77.9067 144.072C78.0464 144.072 77.8405 143.546 77.5243 143.191C77.0685 142.665 76.3038 141.961 75.4951 142.065ZM78.5316 147.552C74.2672 154.275 72.6644 157.681 72.6644 158.74C72.6644 159.125 72.7379 159.199 72.7673 159.266C72.9805 159.792 73.7452 160.532 74.0246 160.673C74.3407 160.851 74.6863 160.991 75.1421 160.814C77.2376 160.036 83.3181 153.638 85.0312 151.669C85.1341 151.565 84.9945 151.284 84.7886 151.454C82.7299 153.357 76.9288 159.088 75.4289 158.911C76.2671 156.66 78.8845 152.187 81.9285 147.544C83.6784 144.975 85.1047 142.902 86.612 140.962C88.1487 139.059 90.4206 135.756 91.6411 136.319C92.3028 136.704 90.9058 134.668 88.9501 134.771C88.6339 134.771 88.1781 135.053 87.656 135.475C86.7811 136.178 85.8032 137.304 84.7592 138.674C82.9431 141.065 80.708 144.131 78.539 147.537L78.5316 147.552ZM82.2005 160.888C84.3695 160.71 89.9206 154.979 92.9572 151.669C93.0601 151.565 92.8837 151.284 92.641 151.454C90.5088 153.527 85.4062 158.422 83.2813 158.985C83.7004 157.541 88.4869 149.521 89.9206 149.662C90.2 149.699 90.3765 149.877 90.3765 149.729C90.3765 148.848 88.9795 147.441 88.1781 147.441C88.0384 147.441 87.8251 147.478 87.656 147.656C85.4209 149.447 80.355 157.119 80.355 159.162C80.355 159.792 81.23 160.673 81.7888 160.851C81.9652 160.888 82.0682 160.888 82.2079 160.888H82.2005ZM91.4205 142.065C90.5088 142.346 89.1854 144.634 89.2221 145.656C89.2589 146.293 89.9941 147.026 90.4794 146.397C90.8985 145.797 92.5087 144.353 93.0969 144.109C93.4792 143.931 93.7586 144.072 93.8321 144.072C93.9718 144.072 93.7586 143.546 93.4498 143.191C92.9939 142.665 92.2293 141.961 91.4205 142.065ZM106.302 149.21C106.758 148.825 105.64 146.922 104.802 146.922C103.611 146.922 97.4642 151.676 93.5527 155.541C92.8175 156.245 92.1558 156.948 91.7734 157.511C92.2955 156.526 94.1115 153.92 95.7585 151.743C96.8099 150.373 98.0965 148.892 98.5524 148.929C98.8318 148.966 98.9715 149.144 98.9715 149.003C98.9715 148.122 97.6407 146.752 96.7731 146.752C96.6702 146.752 96.4569 146.789 96.3173 146.93C95.4055 147.633 93.8689 149.499 92.6116 151.291C91.4573 152.913 90.1338 154.986 89.2956 156.637C88.4207 158.259 88.2516 159.207 88.3178 159.451C88.5972 160.473 89.4353 161.598 90.4867 161.354C89.9647 161.11 90.2074 160.155 91.1485 159.029C91.5308 158.54 91.9499 158.007 92.4057 157.556C94.9938 154.742 100.126 150.484 102.993 149.181C101.177 150.832 97.126 156.711 97.126 158.718C97.126 159.103 97.3687 159.636 97.751 160.088C98.1039 160.51 98.4862 160.828 98.8318 160.828C100.927 160.828 106.625 155.023 109.662 151.684C109.765 151.58 109.588 151.299 109.383 151.469C107.147 153.579 102.148 158.4 99.9494 158.999C100.016 157.348 105.434 149.921 106.309 149.218L106.302 149.21ZM119.882 153.713C120.477 152.513 120.647 152.624 120.757 152.728C120.897 152.306 119.426 150.403 118.764 150.721C118.169 151.002 117.647 151.528 115.235 153.572C114.081 154.557 112.441 155.86 110.765 156.985C109.228 158.007 107.831 158.918 107.692 158.777C107.339 158.496 109.89 154.164 113.213 151.321C115.522 149.388 118.036 147.907 120.058 147.804C121.11 147.73 121.771 148.263 121.771 149.314C121.771 149.84 121.558 150.262 121.419 150.58C121.382 150.617 121.419 150.654 121.492 150.617C121.808 150.158 122.154 149.559 122.154 148.966C122.154 147.315 120.404 146.752 119.044 146.752C112.647 146.752 104.618 154.601 104.618 158.437C104.618 159.14 105.493 160.406 106.118 160.791C106.221 160.865 106.397 160.895 106.471 160.895C107.206 160.895 109.265 159.384 111.257 157.837C113.213 156.289 115.132 154.564 115.662 154.075C116.323 153.476 117.198 152.846 117.162 152.876C117.162 152.876 114.228 158.192 113.456 159.525C105.42 163.398 98.5377 169.092 97.1407 173.564C96.9643 174.09 96.8981 174.549 96.8981 174.934C96.8981 176.415 97.9789 177.007 99.2729 177.007C99.6553 177.007 100.038 176.97 100.427 176.867C107.133 175.075 112.897 166.241 117.367 158.392C118.448 157.933 119.566 157.444 120.683 156.985C121.176 156.808 120.61 156.704 120.051 156.882C119.279 157.126 118.514 157.407 117.742 157.689L119.875 153.713H119.882ZM101.015 174.297C100.457 174.579 99.8611 174.793 99.3759 174.793C98.92 174.793 98.6039 174.616 98.6039 174.127C98.6039 173.779 98.7803 173.283 99.1627 172.579C101.611 168.003 106.464 163.998 112.824 160.621C109.258 166.426 105.103 172.091 101.015 174.305V174.297ZM169.173 135.771C169.173 133.061 167.041 131.758 164.004 131.758C152.233 131.758 131.58 148.574 132.286 160.888C132.499 165.182 135.741 166.833 139.484 166.9C147.138 167.078 160.306 158.14 166.452 152.091C166.592 152.024 166.21 151.847 166.173 151.876C157.894 158.629 147.204 164.575 140.638 164.575C137.947 164.575 135.778 163.768 135.535 160.814C134.763 150.995 153.6 132.632 164.357 132.632C166.526 132.632 167.886 133.542 167.886 135.127C167.886 137.978 162.365 141.11 159.99 141.11C159.784 140.828 160.828 139.525 160.762 139.525C160.409 139.525 158.769 141.073 158.769 141.917C158.769 143.005 159.328 144.168 160.24 144.168C163.666 144.168 169.18 139.273 169.18 135.756L169.173 135.771ZM168.967 147.559C164.703 154.283 163.1 157.689 163.1 158.748C163.1 159.133 163.173 159.207 163.203 159.273C163.416 159.799 164.181 160.54 164.46 160.68C164.776 160.858 165.122 160.999 165.578 160.821C167.673 160.043 173.753 153.646 175.467 151.676C175.57 151.573 175.43 151.291 175.224 151.462C173.165 153.364 167.364 159.096 165.857 158.918C166.695 156.667 169.313 152.195 172.357 147.552C174.106 144.982 175.533 142.909 177.04 140.969C178.577 139.066 180.849 135.764 182.069 136.326C182.731 136.712 181.334 134.675 179.378 134.779C179.062 134.779 178.613 135.06 178.084 135.482C177.209 136.186 176.231 137.311 175.187 138.681C173.371 141.073 171.136 144.138 168.967 147.544V147.559ZM180.099 157.444C179.922 157.97 179.716 158.607 179.716 158.955C179.716 159.592 180.415 160.399 180.974 160.68C181.15 160.821 181.356 160.895 181.532 160.895C183.628 160.895 189.326 155.016 192.363 151.676C192.466 151.573 192.296 151.291 192.083 151.462C189.951 153.498 184.988 158.289 182.79 158.955C182.79 157.97 184.084 155.475 185.826 153.113C186.981 151.565 187.958 150.299 188.48 149.736C188.936 149.248 189.392 148.929 189.635 148.929C189.951 148.966 190.054 149.144 190.054 149.003C190.054 148.122 188.73 146.752 187.885 146.752C187.745 146.752 187.569 146.789 187.392 146.93C185.4 148.477 182.819 151.543 180.996 153.335C179.319 154.956 175.753 158.118 174.077 158.822C174.077 157.8 175.82 154.742 177.606 152.387C178.797 150.84 180.26 149.011 180.782 149.077C181.099 149.114 181.238 149.285 181.238 149.144C181.238 148.226 179.878 146.856 179.04 146.856C178.937 146.856 178.724 146.893 178.555 147.071C177.68 147.774 176.217 149.462 174.989 151.188C172.996 153.964 171.077 157.518 171.077 159.036C171.077 159.881 172.158 160.828 172.717 160.828H172.996C175.092 160.406 179.775 155.342 183.304 151.713C182.01 153.335 180.687 155.83 180.091 157.452L180.099 157.444ZM202.649 140.273C204.781 137.6 206.354 136.052 207.295 136.541C207.957 136.926 206.597 134.853 204.641 134.853C204.325 134.853 203.869 135.097 203.31 135.49C201.671 136.86 200.303 138.548 199.083 140.206C195.487 145.027 191.149 151.432 189.194 155.83C188.179 158.155 188.113 159.207 188.216 159.488C188.458 160.051 189.157 160.791 189.473 160.895C189.819 161.102 190.172 161.25 190.591 161.073C189.017 160.895 190.451 158.859 191.466 157.378C195.098 151.995 202.09 148.3 202.678 148.337C202.362 150.099 196.009 159.451 192.473 159.451C191.774 159.451 191.149 158.785 191.149 158.429C191.149 158.326 191.01 158.392 191.01 158.57C191.01 159.732 192.546 160.643 193.907 160.643C198.73 160.643 205.509 152.091 205.509 148.929C205.509 148.433 204.288 147.1 203.869 146.922C201.98 146.256 195.833 151.039 193.113 154.416C195.804 149.21 199.193 144.634 202.649 140.273Z" fill="white"/>
<path d="M31.4171 76.7785L30.9171 77.2376C29.6599 78.4001 29.454 78.3557 27.7923 78.3557H4.73499C3.07333 78.3557 2.87482 78.4075 1.61019 77.2376L1.11022 76.7785H0.705837L0 86.1305H0.786714C2.55131 79.844 5.23496 80.0069 11.0214 80.0069H14.0432V103.294C14.0432 109.581 13.7418 111.254 6.9922 112.069V112.832H25.5204V112.069C18.7709 111.254 18.4694 109.581 18.4694 103.294V80.0069H21.4913C27.2777 80.0069 29.9613 79.844 31.7259 86.1305H32.4979L31.8141 76.7785H31.4098H31.4171ZM37.3873 112.069V112.832H65.2164C65.8267 109.329 66.2972 106.397 66.9295 102.791H66.1134C64.8561 109.181 61.9593 111.173 55.6141 111.173C47.3573 111.173 48.0631 107.456 48.0631 104.464V96.149H53.2981C57.0772 96.149 59.8418 96.2008 60.4961 100.658H61.2534V89.3515H60.4961C59.9447 93.7129 57.0699 94.0165 53.2981 94.0165H48.0631V80.0069H52.9451C58.0331 80.0069 62.7092 79.6145 63.0621 86.1527H63.8194L64.4223 78.3409H37.3873V79.1036C43.431 79.9181 43.4825 81.436 43.6296 86.6563V104.501C43.4752 109.722 43.431 111.247 37.3873 112.054V112.069ZM104.39 104.923L79.6125 78.3483H71.9145V79.111C77.3921 80.2587 78.3994 83.1169 78.3994 87.5374V95.8824C78.3994 107.389 78.7523 111.351 71.9586 112.062V112.824H86.7739V112.062C79.4729 110.588 80.1493 108.107 80.0758 95.9565V86.212C88.612 95.4159 96.6482 104.102 105.537 113.787H106.067V86.4193C106.067 81.6804 106.376 79.5404 110.927 79.1036V78.3409H98.1408V79.1036C103.552 79.1036 104.39 82.0284 104.39 86.523V104.916V104.923ZM117.353 78.3483L116.544 88.3371H117.353C117.904 85.5974 119.161 82.1543 121.83 80.9325C124.301 79.8144 129.97 80.0069 132.742 80.0069H137.388L118.309 107.908L114.985 112.469L115.184 112.824H144.226C145.042 108.152 145.255 106.789 146.064 102.065H145.255C144.403 105.042 143.844 108.152 139.734 110.121C136.057 111.639 130.749 111.173 126.823 111.173H122.139L144.336 78.7037L144.086 78.3483H117.353ZM189.091 95.5862C189.091 86.56 183.503 77.7411 170.614 77.7411C160.093 77.7411 152.24 84.7385 152.24 95.5344C152.24 106.33 160.041 113.431 170.666 113.431C181.29 113.431 189.091 106.486 189.091 95.5862ZM158.078 94.32C158.078 87.4782 161.548 78.9555 170.21 78.9555C177.915 78.9555 183.099 87.4708 183.246 96.4452C183.246 103.694 179.569 112.21 171.261 112.21C162.203 112.21 158.071 102.169 158.071 94.3126L158.078 94.32ZM203.472 95.2826V80.0069C208.759 79.9551 213.942 81.6433 213.942 87.5744C213.942 93.2019 208.303 95.2308 203.472 95.2826ZM199.039 88.6037V104.516C198.884 109.736 198.84 111.262 192.796 112.069V112.832H209.435V112.069C202.539 111.106 203.465 108.952 203.465 104.516V96.7932C204.935 96.7043 208.965 96.0823 210.913 100.147C211.972 102.332 214.494 106.597 217.817 110.092C220.736 113.135 225.493 113.483 230 113.239L229.985 112.439C221.677 110.714 217.008 102.036 213.133 95.1938L212.883 94.8384C216.508 93.2168 219.126 90.7806 219.126 86.523C219.126 84.0869 218.31 78.3853 205.435 78.3853H193.149V79.185C198.789 79.6885 199.039 80.8584 199.039 88.6185V88.6037Z" fill="white"/>
<path d="M140.204 0H83.7815C83.7815 0 83.7815 37.4155 83.8183 38.8372C83.8183 39.0668 83.8183 39.3185 83.8183 39.5851C83.8183 42.6284 83.8036 48.8112 92.4795 52.0619L96.4792 53.6094C103.008 56.0974 103.486 56.2677 111.236 59.2147L111.986 59.4591L112.736 59.2147C120.492 56.2677 120.97 56.0974 127.492 53.6094L131.492 52.0619C140.168 48.8186 140.16 42.6284 140.153 39.5851C140.153 39.3111 140.153 39.0594 140.153 38.8372C140.197 37.4155 140.19 0 140.19 0H140.204ZM138.3 38.7854C138.293 39.0297 138.293 39.3037 138.293 39.5925C138.293 42.5469 138.278 47.5302 130.823 50.3218L126.816 51.8694C120.419 54.3425 119.823 54.5868 112.111 57.4524L111.993 57.4895H111.971L111.853 57.4524C104.14 54.5868 103.545 54.3425 97.1483 51.8694L93.1412 50.3218C85.6858 47.5302 85.6711 42.5395 85.6711 39.5925C85.6711 39.3037 85.6711 39.0297 85.6711 38.7854C85.7005 36.8824 85.6931 7.64157 85.7005 1.86596H138.263C138.263 7.64157 138.263 36.875 138.293 38.7854H138.3Z" fill="white"/>
<path d="M110.25 15.8311C110.25 14.2539 110.633 6.13103 101.802 6.13103H89.3987V16.7641L92.5088 19.6222V9.34463H101.876C107.493 9.34463 107.125 14.676 107.125 15.7941V48.1152C107.125 48.1152 98.0305 44.7387 95.2733 43.5021C94.4351 43.0653 92.5161 42.347 92.5161 38.1708V30.2849L92.4794 30.2553L89.406 27.4341V38.2745C89.406 44.7239 93.1926 46.1234 94.7219 46.7009C97.5158 47.7746 110.25 52.6542 110.25 52.6542V15.8311Z" fill="white"/>
<path d="M113.743 15.8311C113.743 14.2539 113.36 6.13103 122.191 6.13103H134.594V16.7641L131.484 19.6222V9.34463H122.117C116.5 9.34463 116.867 14.676 116.867 15.7941V48.1152C116.867 48.1152 125.962 44.7387 128.72 43.5021C129.558 43.0653 131.477 42.347 131.477 38.1708V30.2849L131.514 30.2553L134.587 27.4341V38.2745C134.587 44.7239 130.8 46.1234 129.271 46.7009C126.47 47.7746 113.743 52.6542 113.743 52.6542V15.8311Z" fill="white"/>
<path d="M98.8392 32.0324H100.751V24.2279H102.964V22.5619H102.817H102.685H99.8171H96.7952H96.6482V24.2279H98.8392V32.0324Z" fill="white"/>
<path d="M126.933 24.2205V22.5767H126.837C125.889 22.5767 125.058 22.6877 124.338 22.9025C124.22 22.9395 124.11 22.9839 124.014 23.021C123.426 23.2357 122.904 23.5467 122.477 23.9243C121.955 24.3982 121.58 24.961 121.353 25.5978C121.191 26.1087 121.095 26.6862 121.095 27.2934C121.095 27.9006 121.191 28.4263 121.353 28.9224C121.485 29.263 121.647 29.5814 121.86 29.8776C121.955 30.0257 122.073 30.159 122.183 30.2849C122.294 30.4182 122.426 30.5292 122.558 30.6625H122.573C122.977 31.0253 123.455 31.3215 124.007 31.5363C124.139 31.5881 124.271 31.6325 124.411 31.6844C125.117 31.8991 125.933 32.0102 126.83 32.0102H126.926V30.3515H126.86C126.86 30.3515 126.83 30.3515 126.823 30.3515C126.47 30.3515 126.095 30.3293 125.713 30.2405C125.691 30.2405 125.676 30.2331 125.661 30.2256C124.338 29.9147 123.117 29.0335 123.117 27.3601C123.117 27.3378 123.117 27.249 123.117 27.2268C123.154 24.1909 126.661 24.2575 126.926 24.2205H126.933Z" fill="white"/>
</g>
<defs>
<clipPath id="clip0_47_178">
<rect width="230" height="177" fill="white"/>
</clipPath>
</defs>
</svg>
