<svg width="43" height="44" viewBox="0 0 43 44" fill="none" xmlns="http://www.w3.org/2000/svg">
<path d="M43 0.874878H0C0 0.874878 1.70958e-06 27.9333 0.0280184 28.9614C0.0280184 29.1274 0.0280184 29.3095 0.0280184 29.5023C0.0280184 31.7031 0.0168109 36.1745 6.62875 38.5253L9.67696 39.6445C14.6527 41.4437 15.0169 41.5669 20.9229 43.6982L21.4944 43.8749L22.0659 43.6982C27.9775 41.5669 28.3417 41.4437 33.3118 39.6445L36.36 38.5253C42.972 36.1799 42.9664 31.7031 42.9608 29.5023C42.9608 29.3041 42.9608 29.1221 42.9608 28.9614C42.9944 27.9333 42.9888 0.874878 42.9888 0.874878H43ZM41.5487 28.9239C41.5431 29.1007 41.5431 29.2988 41.5431 29.5076C41.5431 31.6442 41.5319 35.2481 35.8501 37.2669L32.7963 38.3861C27.9214 40.1746 27.4676 40.3513 21.5897 42.4237L21.5 42.4505H21.4832L21.3935 42.4237C15.5156 40.3513 15.0618 40.1746 10.1869 38.3861L7.13305 37.2669C1.45127 35.2481 1.44006 31.6389 1.44006 29.5076C1.44006 29.2988 1.44006 29.1007 1.44006 28.9239C1.46247 27.5477 1.45687 6.40115 1.46247 2.22432H41.5207C41.5207 6.40115 41.5207 27.5424 41.5431 28.9239H41.5487Z" fill="white"/>
<path d="M20.1721 12.3236C20.1721 11.1831 20.4634 5.3087 13.7338 5.3087H4.28101V12.9984L6.65122 15.0654V7.63274H13.7899C18.0708 7.63274 17.7906 11.4883 17.7906 12.2969V35.6711C17.7906 35.6711 10.8593 33.2293 8.75807 32.335C8.11929 32.019 6.65682 31.4996 6.65682 28.4794V22.7765L6.6288 22.755L4.28661 20.7148V28.5544C4.28661 33.2185 7.17233 34.2306 8.33782 34.6483C10.4671 35.4248 20.1721 38.9537 20.1721 38.9537V12.3236Z" fill="white"/>
<path d="M22.8336 12.3236C22.8336 11.1831 22.5423 5.3087 29.2719 5.3087H38.7247V12.9984L36.3545 15.0654V7.63274H29.2158C24.9349 7.63274 25.2151 11.4883 25.2151 12.2969V35.6711C25.2151 35.6711 32.1464 33.2293 34.2476 32.335C34.8864 32.019 36.3489 31.4996 36.3489 28.4794V22.7765L36.3769 22.755L38.7191 20.7148V28.5544C38.7191 33.2185 35.8334 34.2306 34.6679 34.6483C32.533 35.4248 22.8336 38.9537 22.8336 38.9537V12.3236Z" fill="white"/>
<path d="M11.4755 24.0405H12.9323V18.3964H14.6189V17.1916H14.5069H14.406H12.2207H9.91773H9.80566V18.3964H11.4755V24.0405Z" fill="white"/>
<path d="M32.8861 18.3909V17.2021H32.8132C32.0904 17.2021 31.4572 17.2824 30.9081 17.4377C30.8184 17.4645 30.7344 17.4966 30.6615 17.5234C30.2133 17.6787 29.8154 17.9036 29.4904 18.1767C29.0926 18.5194 28.8068 18.9264 28.6331 19.3869C28.5099 19.7564 28.437 20.1741 28.437 20.6132C28.437 21.0523 28.5099 21.4325 28.6331 21.7912C28.734 22.0376 28.8573 22.2678 29.0198 22.482C29.0926 22.5891 29.1823 22.6855 29.2663 22.7766C29.3504 22.8729 29.4512 22.9533 29.5521 23.0497H29.5633C29.8715 23.312 30.2357 23.5262 30.6559 23.6815C30.7568 23.719 30.8577 23.7511 30.9641 23.7886C31.502 23.9439 32.124 24.0242 32.8076 24.0242H32.8805V22.8247H32.83C32.83 22.8247 32.8076 22.8247 32.802 22.8247C32.5331 22.8247 32.2473 22.8087 31.9559 22.7444C31.9391 22.7444 31.9279 22.7391 31.9167 22.7337C30.9081 22.5088 29.9779 21.8716 29.9779 20.6614C29.9779 20.6453 29.9779 20.581 29.9779 20.565C30.0059 18.3695 32.6787 18.4176 32.8805 18.3909H32.8861Z" fill="white"/>
</svg>
