<svg width="43" height="44" viewBox="0 0 43 44" fill="none" xmlns="http://www.w3.org/2000/svg">
<path d="M43 0.874878H0C0 0.874878 1.70958e-06 27.9333 0.0280184 28.9614C0.0280184 29.1274 0.0280184 29.3095 0.0280184 29.5023C0.0280184 31.7031 0.0168109 36.1745 6.62875 38.5253L9.67696 39.6445C14.6527 41.4437 15.0169 41.5669 20.9229 43.6982L21.4944 43.8749L22.0659 43.6982C27.9775 41.5669 28.3417 41.4437 33.3118 39.6445L36.36 38.5253C42.972 36.1799 42.9664 31.7031 42.9608 29.5023C42.9608 29.3041 42.9608 29.1221 42.9608 28.9614C42.9944 27.9333 42.9888 0.874878 42.9888 0.874878H43ZM41.5487 28.9239C41.5431 29.1007 41.5431 29.2988 41.5431 29.5076C41.5431 31.6442 41.5319 35.2481 35.8501 37.2669L32.7963 38.3861C27.9214 40.1746 27.4676 40.3513 21.5897 42.4237L21.5 42.4505H21.4832L21.3935 42.4237C15.5156 40.3513 15.0618 40.1746 10.1869 38.3861L7.13305 37.2669C1.45127 35.2481 1.44006 31.6389 1.44006 29.5076C1.44006 29.2988 1.44006 29.1007 1.44006 28.9239C1.46247 27.5477 1.45687 6.40115 1.46247 2.22432H41.5207C41.5207 6.40115 41.5207 27.5424 41.5431 28.9239H41.5487Z" fill="black"/>
<path d="M20.1723 12.3237C20.1723 11.1831 20.4637 5.30872 13.7341 5.30872H4.28125V12.9984L6.65146 15.0654V7.63275H13.7901C18.0711 7.63275 17.7909 11.4883 17.7909 12.2969V35.6711C17.7909 35.6711 10.8596 33.2293 8.75832 32.335C8.11954 32.0191 6.65707 31.4996 6.65707 28.4795V22.7765L6.62905 22.755L4.28685 20.7148V28.5544C4.28685 33.2186 7.17257 34.2306 8.33807 34.6483C10.4673 35.4248 20.1723 38.9537 20.1723 38.9537V12.3237Z" fill="black"/>
<path d="M22.8339 12.3237C22.8339 11.1831 22.5425 5.30872 29.2721 5.30872H38.7249V12.9984L36.3547 15.0654V7.63275H29.2161C24.9351 7.63275 25.2153 11.4883 25.2153 12.2969V35.6711C25.2153 35.6711 32.1466 33.2293 34.2479 32.335C34.8867 32.0191 36.3491 31.4996 36.3491 28.4795V22.7765L36.3771 22.755L38.7193 20.7148V28.5544C38.7193 33.2186 35.8336 34.2306 34.6681 34.6483C32.5333 35.4248 22.8339 38.9537 22.8339 38.9537V12.3237Z" fill="black"/>
<path d="M11.4755 24.0405H12.9323V18.3964H14.6189V17.1915H14.5069H14.406H12.2207H9.91773H9.80566V18.3964H11.4755V24.0405Z" fill="black"/>
<path d="M32.8861 18.3908V17.202H32.8132C32.0904 17.202 31.4572 17.2824 30.9081 17.4376C30.8184 17.4644 30.7344 17.4965 30.6615 17.5233C30.2133 17.6786 29.8154 17.9035 29.4904 18.1766C29.0926 18.5193 28.8068 18.9263 28.6331 19.3868C28.5099 19.7563 28.437 20.174 28.437 20.6131C28.437 21.0522 28.5099 21.4324 28.6331 21.7912C28.734 22.0375 28.8573 22.2678 29.0198 22.482C29.0926 22.5891 29.1823 22.6855 29.2663 22.7765C29.3504 22.8729 29.4512 22.9532 29.5521 23.0496H29.5633C29.8715 23.312 30.2357 23.5262 30.6559 23.6815C30.7568 23.719 30.8577 23.7511 30.9641 23.7886C31.502 23.9439 32.124 24.0242 32.8076 24.0242H32.8805V22.8247H32.83C32.83 22.8247 32.8076 22.8247 32.802 22.8247C32.5331 22.8247 32.2473 22.8086 31.9559 22.7444C31.9391 22.7444 31.9279 22.739 31.9167 22.7337C30.9081 22.5088 29.9779 21.8715 29.9779 20.6613C29.9779 20.6452 29.9779 20.581 29.9779 20.5649C30.0059 18.3694 32.6787 18.4176 32.8805 18.3908H32.8861Z" fill="black"/>
</svg>
