<svg width="172" height="132" viewBox="0 0 172 132" fill="none" xmlns="http://www.w3.org/2000/svg">
<path d="M13.1309 121.727C13.1309 119.805 19.7176 114.072 26.5882 112.205C23.2429 112.128 11.521 118.326 11.521 122.169C11.521 124.217 14.0095 124.714 15.723 124.714C22.8009 124.714 35.7125 119.161 35.7125 113.482C35.7125 110.605 32.6783 109.644 29.7478 108.836C27.1284 108.11 24.64 107.46 24.64 105.959C24.64 103.289 32.2636 99.008 35.5815 98.6422C35.9199 98.6149 36.2528 98.5876 36.542 98.5876C37.5243 98.5876 38.2283 98.8224 38.0973 99.6523C37.7589 102.011 32.7056 104.921 31.6415 104.921C31.4832 104.921 31.3304 104.921 31.3304 104.763C31.3304 104.397 31.4887 103.857 31.8761 103.414C31.3577 103.725 30.3481 104.839 30.3481 105.904C30.3481 106.477 31.123 106.685 31.6469 106.685C34.3973 106.685 38.9049 103.338 38.9595 100.253C38.9868 98.2545 37.4042 97.6867 35.0413 97.7631C31.254 97.8942 22.8773 101.372 22.8773 105.729C22.8773 108.012 26.4026 108.481 29.5132 109.333C32.0562 110.032 34.2063 110.993 34.2063 112.603C34.2063 116.518 21.5512 122.775 15.3028 122.775C14.4788 122.764 13.1309 122.743 13.1309 121.727ZM42.5885 116.824C42.4848 117.212 42.3811 117.523 42.3811 117.785C42.3811 118.255 42.8723 118.795 43.2379 119.003C43.418 119.106 43.549 119.161 43.6799 119.161C45.2352 119.161 49.4645 114.826 51.7183 112.363C51.7947 112.287 51.6637 112.079 51.5382 112.205C49.9284 113.706 46.223 117.266 44.5913 117.73C44.5913 117.523 44.695 117.212 44.8532 116.851C45.6281 115.191 47.9638 112.363 48.0948 112.625C48.1985 112.314 47.3199 110.889 46.796 111.146C46.1466 111.511 44.4603 113.144 43.9964 113.559C42.6485 114.7 39.0195 117.321 38.1628 117.605C38.0864 117.632 38.0318 117.632 37.9827 117.605C37.748 117.474 39.6962 114.203 42.1574 112.107C43.8437 110.681 45.7373 109.589 47.238 109.513C48.0184 109.458 48.5095 109.852 48.5095 110.627C48.5095 111.015 48.3512 111.326 48.2257 111.561C48.1984 111.588 48.253 111.615 48.3021 111.588C48.5641 111.249 48.7933 110.807 48.7933 110.37C48.7933 109.153 47.4945 108.738 46.5122 108.738C41.7427 108.738 35.8053 114.525 35.8053 117.354C35.8053 117.872 36.4765 118.861 36.9458 119.09C37.0004 119.117 37.1259 119.166 37.1805 119.166C38.2719 119.166 43.3252 114.809 44.1056 114.028C43.6035 114.673 42.8996 115.863 42.5885 116.824ZM49.5082 119.161C51.118 119.03 55.2382 114.804 57.4974 112.363C57.5738 112.287 57.4483 112.079 57.2628 112.205C55.6802 113.734 51.8929 117.343 50.3158 117.758C50.6269 116.693 54.1795 110.78 55.2436 110.884C55.451 110.911 55.582 111.036 55.582 110.933C55.582 110.283 54.5451 109.246 53.9503 109.246C53.8466 109.246 53.6938 109.273 53.5628 109.404C51.9038 110.725 48.1439 116.382 48.1439 117.889C48.1439 118.353 48.7933 119.003 49.208 119.134C49.3281 119.161 49.4045 119.161 49.5082 119.161ZM56.3514 105.282C55.6802 105.489 54.6924 107.176 54.7197 107.93C54.747 108.399 55.2873 108.94 55.6529 108.476C55.964 108.033 57.1591 106.969 57.5957 106.789C57.8794 106.657 58.0868 106.761 58.1414 106.761C58.2451 106.761 58.0922 106.374 57.8576 106.111C57.5192 105.724 56.9517 105.205 56.3514 105.282ZM58.6052 109.327C55.4401 114.285 54.2504 116.797 54.2504 117.577C54.2504 117.861 54.305 117.916 54.3268 117.965C54.4851 118.353 55.0526 118.899 55.26 119.003C55.4947 119.134 55.7511 119.237 56.0895 119.106C57.6448 118.533 62.1578 113.816 63.4293 112.363C63.5057 112.287 63.402 112.079 63.2492 112.205C61.7212 113.608 57.4156 117.834 56.3023 117.703C56.9244 116.043 58.8672 112.745 61.1264 109.322C62.4252 107.427 63.4839 105.899 64.6026 104.468C65.7432 103.065 67.4294 100.63 68.3353 101.045C68.8265 101.329 67.7896 99.827 66.338 99.9035C66.1033 99.9035 65.765 100.111 65.3775 100.422C64.7281 100.941 64.0023 101.771 63.2274 102.781C61.874 104.555 60.2151 106.81 58.6052 109.327ZM61.3283 119.161C62.9382 119.03 67.0583 114.804 69.3121 112.363C69.3885 112.287 69.2576 112.079 69.0775 112.205C67.4949 113.734 63.7077 117.343 62.1305 117.758C62.4416 116.693 65.9942 110.78 67.0583 110.884C67.2657 110.911 67.3967 111.036 67.3967 110.933C67.3967 110.283 66.3598 109.246 65.765 109.246C65.6613 109.246 65.503 109.273 65.3775 109.404C63.7186 110.725 59.9586 116.382 59.9586 117.889C59.9586 118.353 60.608 119.003 61.0227 119.134C61.1483 119.161 61.2247 119.161 61.3283 119.161ZM68.177 105.282C67.5004 105.489 66.5181 107.176 66.5454 107.93C66.5727 108.399 67.1184 108.94 67.4785 108.476C67.7896 108.033 68.9847 106.969 69.4213 106.789C69.705 106.657 69.9124 106.761 69.967 106.761C70.0707 106.761 69.9124 106.374 69.6832 106.111C69.3449 105.724 68.7719 105.205 68.177 105.282ZM79.2223 110.55C79.5606 110.267 78.7312 108.863 78.1091 108.863C77.225 108.863 72.6628 112.369 69.7596 115.219C69.2139 115.737 68.7228 116.256 68.439 116.671C68.8265 115.945 70.1744 114.023 71.3968 112.418C72.1771 111.408 73.1321 110.316 73.4705 110.343C73.6779 110.37 73.7815 110.501 73.7815 110.398C73.7815 109.748 72.7938 108.738 72.1498 108.738C72.0734 108.738 71.9152 108.765 71.8115 108.869C71.1348 109.387 69.9943 110.763 69.0611 112.085C68.2043 113.28 67.2221 114.809 66.5999 116.027C65.9505 117.223 65.825 117.921 65.8741 118.102C66.0815 118.855 66.7036 119.685 67.484 119.505C67.0965 119.325 67.2766 118.62 67.9751 117.79C68.2589 117.43 68.57 117.037 68.9083 116.704C70.8292 114.629 74.6383 111.49 76.7666 110.529C75.4187 111.746 72.4118 116.081 72.4118 117.561C72.4118 117.845 72.5919 118.238 72.8757 118.571C73.1376 118.882 73.4214 119.117 73.6779 119.117C75.2331 119.117 79.4624 114.837 81.7162 112.374C81.7926 112.298 81.6616 112.09 81.5088 112.216C79.8499 113.772 76.139 117.326 74.5073 117.769C74.551 116.54 78.5729 111.064 79.2223 110.55ZM89.3016 113.87C89.7437 112.986 89.8692 113.068 89.951 113.144C90.0547 112.833 88.9633 111.43 88.4722 111.664C88.0301 111.872 87.6427 112.259 85.8527 113.766C84.996 114.493 83.779 115.454 82.5348 116.283C81.3942 117.037 80.3574 117.709 80.2537 117.605C79.9918 117.397 81.8854 114.203 84.352 112.107C86.0656 110.681 87.9319 109.589 89.4326 109.513C90.213 109.458 90.7041 109.852 90.7041 110.627C90.7041 111.015 90.5459 111.326 90.4422 111.561C90.4149 111.588 90.4422 111.615 90.4968 111.588C90.7314 111.249 90.9879 110.807 90.9879 110.37C90.9879 109.153 89.6891 108.738 88.6795 108.738C83.9318 108.738 77.9726 114.525 77.9726 117.354C77.9726 117.872 78.622 118.806 79.0859 119.09C79.1623 119.145 79.2932 119.166 79.3478 119.166C79.8935 119.166 81.4215 118.053 82.9004 116.911C84.352 115.77 85.7763 114.498 86.1692 114.138C86.6604 113.695 87.3098 113.231 87.2825 113.253C87.2825 113.253 85.1051 117.168 84.5321 118.156C78.5674 121.012 73.4596 125.211 72.4227 128.508C72.2917 128.896 72.2426 129.235 72.2426 129.519C72.2426 130.611 73.0448 131.047 74.0053 131.047C74.289 131.047 74.5728 131.02 74.862 130.944C79.839 129.622 84.1174 123.108 87.4353 117.321C88.2375 116.982 89.067 116.622 89.8965 116.283C90.2621 116.152 89.8419 116.076 89.4272 116.207C88.8542 116.387 88.2866 116.595 87.7136 116.802L89.3016 113.87ZM75.2986 129.043C74.8839 129.251 74.4418 129.409 74.0817 129.409C73.7433 129.409 73.5087 129.278 73.5087 128.918C73.5087 128.661 73.6396 128.295 73.9234 127.777C75.7406 124.402 79.3424 121.449 84.0628 118.953C81.4215 123.234 78.3328 127.411 75.2986 129.043ZM125.892 100.635C125.892 98.6367 124.309 97.6758 122.055 97.6758C113.319 97.6758 97.9894 110.075 98.5133 119.155C98.6716 122.322 101.078 123.54 103.856 123.589C109.537 123.72 119.31 117.13 123.873 112.669C123.976 112.62 123.693 112.489 123.665 112.511C117.521 117.49 109.586 121.875 104.713 121.875C102.715 121.875 101.105 121.279 100.925 119.101C100.352 111.861 114.334 98.3201 122.317 98.3201C123.927 98.3201 124.937 98.9917 124.937 100.16C124.937 102.262 120.838 104.572 119.076 104.572C118.923 104.364 119.698 103.403 119.649 103.403C119.387 103.403 118.17 104.544 118.17 105.167C118.17 105.97 118.585 106.827 119.261 106.827C121.793 106.838 125.892 103.229 125.892 100.635ZM125.739 109.327C122.574 114.285 121.384 116.797 121.384 117.577C121.384 117.861 121.439 117.916 121.461 117.965C121.619 118.353 122.186 118.899 122.394 119.003C122.628 119.134 122.885 119.237 123.223 119.106C124.779 118.533 129.292 113.816 130.563 112.363C130.64 112.287 130.536 112.079 130.383 112.205C128.855 113.608 124.549 117.834 123.431 117.703C124.053 116.043 125.995 112.745 128.255 109.322C129.554 107.427 130.612 105.899 131.731 104.468C132.871 103.065 134.558 100.63 135.464 101.045C135.955 101.329 134.918 99.827 133.466 99.9035C133.232 99.9035 132.899 100.111 132.506 100.422C131.856 100.941 131.131 101.771 130.356 102.781C129.008 104.555 127.349 106.81 125.739 109.327ZM134.001 116.617C133.87 117.004 133.717 117.474 133.717 117.73C133.717 118.2 134.236 118.795 134.65 119.003C134.781 119.106 134.934 119.161 135.065 119.161C136.621 119.161 140.85 114.826 143.104 112.363C143.18 112.287 143.055 112.079 142.896 112.205C141.314 113.706 137.63 117.239 135.998 117.73C135.998 117.004 136.959 115.164 138.252 113.422C139.109 112.281 139.835 111.348 140.222 110.933C140.561 110.572 140.899 110.338 141.079 110.338C141.314 110.365 141.39 110.496 141.39 110.392C141.39 109.742 140.408 108.732 139.78 108.732C139.677 108.732 139.546 108.76 139.415 108.863C137.936 110.004 136.02 112.265 134.667 113.586C133.423 114.782 130.776 117.113 129.532 117.632C129.532 116.879 130.825 114.624 132.151 112.887C133.035 111.746 134.121 110.398 134.509 110.447C134.743 110.474 134.847 110.605 134.847 110.496C134.847 109.819 133.837 108.809 133.215 108.809C133.139 108.809 132.981 108.836 132.855 108.967C132.206 109.486 131.12 110.731 130.208 112.003C128.73 114.05 127.305 116.671 127.305 117.79C127.305 118.413 128.107 119.112 128.522 119.112C128.522 119.112 128.68 119.112 128.729 119.112C130.285 118.801 133.761 115.066 136.38 112.39C135.431 113.581 134.443 115.426 134.001 116.617ZM150.738 103.96C152.321 101.989 153.489 100.848 154.187 101.208C154.678 101.492 153.669 99.9635 152.217 99.9635C151.982 99.9635 151.644 100.144 151.229 100.433C150.012 101.443 148.997 102.688 148.091 103.911C145.423 107.466 142.203 112.188 140.752 115.432C139.998 117.146 139.949 117.921 140.026 118.129C140.206 118.544 140.724 119.09 140.959 119.166C141.215 119.325 141.477 119.428 141.788 119.297C140.621 119.166 141.685 117.665 142.438 116.573C145.134 112.603 150.323 109.879 150.76 109.906C150.525 111.206 145.81 118.102 143.185 118.102C142.667 118.102 142.203 117.61 142.203 117.348C142.203 117.272 142.1 117.321 142.1 117.452C142.1 118.309 143.24 118.981 144.25 118.981C147.829 118.981 152.861 112.674 152.861 110.343C152.861 109.977 151.955 108.994 151.644 108.863C150.242 108.372 145.679 111.899 143.66 114.389C145.658 110.55 148.168 107.176 150.738 103.96Z" fill="#2D4390"/>
<path d="M23.6411 57.1407L23.27 57.4793C22.3369 58.3365 22.1841 58.3037 20.9508 58.3037H3.83716C2.60384 58.3037 2.4565 58.3419 1.51787 57.4793L1.14678 57.1407H0.846643L0.322754 64.0367H0.906672C2.21639 59.4012 4.20824 59.5213 8.50301 59.5213H10.7459V76.693C10.7459 81.3285 10.5222 82.5625 5.51249 83.1631V83.7255H19.2645V83.1631C14.2548 82.5625 14.0311 81.3285 14.0311 76.693V59.5213H16.274C20.5688 59.5213 22.5606 59.4012 23.8703 64.0367H24.4433L23.9358 57.1407H23.6411ZM28.0723 83.1576V83.72H48.7276C49.1806 81.1374 49.5298 78.9753 49.9991 76.3163H49.3934C48.4602 81.0282 46.3101 82.497 41.6006 82.497C35.4722 82.497 35.9961 79.7561 35.9961 77.5502V71.4186H39.8816C42.6865 71.4186 44.7384 71.4569 45.2241 74.7438H45.7862V66.4064H45.2241C44.8148 69.6223 42.6811 69.8462 39.8816 69.8462H35.9961V59.5158H39.6196C43.396 59.5158 46.8667 59.2265 47.1287 64.0476H47.6907L48.1382 58.2873H28.0723V58.8497C32.5581 59.4503 32.5963 60.5696 32.7054 64.4189V77.5775C32.5908 81.4377 32.5581 82.5625 28.0723 83.1576ZM77.8033 77.8942L59.4127 58.2983H53.6991V58.8606C57.7646 59.7069 58.5123 61.8145 58.5123 65.0741V71.2275C58.5123 79.7124 58.7742 82.6335 53.7318 83.1576V83.72H64.7279V83.1576C59.309 82.0711 59.8111 80.242 59.7565 71.2821V64.0968C66.0922 70.8836 72.0569 77.2882 78.6546 84.4298H79.0475C79.0475 77.0425 79.0475 68.5521 79.0475 64.2497C79.0475 60.7553 79.2767 59.1773 82.6547 58.8552V58.2928H73.1647V58.8552C77.1812 58.8552 77.8033 61.0119 77.8033 64.3261V77.8942ZM87.4242 58.2983L86.8239 65.6638H87.4242C87.8335 63.6436 88.7667 61.1047 90.7476 60.2038C92.5812 59.3793 96.7887 59.5213 98.846 59.5213H102.295L88.1336 80.0946L85.667 83.458L85.8144 83.72H107.37C107.976 80.2748 108.134 79.2701 108.734 75.7866H108.134C107.501 77.9816 107.086 80.2748 104.036 81.7271C101.307 82.8464 97.3671 82.5025 94.453 82.5025H90.9768L107.452 58.5603L107.266 58.2983H87.4242ZM140.67 71.0091C140.67 64.3534 136.522 57.8505 126.956 57.8505C119.147 57.8505 113.318 63.0102 113.318 70.9709C113.318 79.0463 119.108 84.1677 126.994 84.1677C134.836 84.1677 140.67 79.0463 140.67 71.0091ZM117.651 70.0755C117.651 65.0304 120.227 58.746 126.656 58.746C132.375 58.746 136.222 65.025 136.331 71.6425C136.331 76.9878 133.603 83.2669 127.436 83.2669C120.713 83.2723 117.651 75.8685 117.651 70.0755ZM151.338 70.7853V59.5213C155.262 59.4831 159.109 60.728 159.109 65.1014C159.109 69.251 154.924 70.7471 151.338 70.7853ZM148.053 65.8549V77.5885C147.938 81.4378 147.906 82.5625 143.42 83.1576V83.72H155.769V83.1576C150.651 82.4478 151.338 80.859 151.338 77.5885V71.8937C152.43 71.8281 155.42 71.3695 156.866 74.367C157.652 75.9777 159.524 79.1227 161.991 81.6998C164.157 83.9439 167.688 84.2005 171.033 84.0203L171.022 83.4306C164.856 82.1585 161.39 75.7593 158.514 70.7143L158.329 70.4522C161.019 69.2565 162.962 67.4601 162.962 64.3206C162.962 62.5243 162.356 58.3201 152.801 58.3201H143.682V58.9098C147.862 59.2756 148.053 60.1383 148.053 65.8549Z" fill="#2D4390"/>
<path d="M104.385 0.526001H83.4457H62.5067C62.5067 0.526001 62.5012 28.1154 62.534 29.1637C62.5394 29.333 62.5394 29.5186 62.5394 29.7152C62.534 31.9592 62.5285 36.5183 68.9679 38.9153L71.9366 40.0564C76.7826 41.891 77.1373 42.0165 82.8891 44.1896L83.4457 44.3698L84.0024 44.1896C89.7597 42.0165 90.1144 41.891 94.9549 40.0564L97.9235 38.9153C104.363 36.5238 104.358 31.9592 104.352 29.7152C104.352 29.5131 104.352 29.3275 104.358 29.1637C104.39 28.1154 104.385 0.526001 104.385 0.526001ZM102.971 29.1255C102.966 29.3057 102.966 29.5077 102.966 29.7206C102.971 31.8992 102.955 35.5737 97.4215 37.6322L94.4473 38.7733C89.6996 40.5969 89.2576 40.7771 83.5331 42.8901L83.4457 42.9174H83.4403H83.4348L83.3475 42.8901C77.623 40.7771 77.1809 40.5969 72.4332 38.7733L69.4591 37.6322C63.9255 35.5737 63.9146 31.8937 63.9146 29.7206C63.9146 29.5077 63.9146 29.3057 63.9092 29.1255C63.931 27.7223 63.9255 6.16072 63.931 1.90192H83.4403H102.944C102.955 6.16072 102.95 27.7168 102.971 29.1255Z" fill="#2D4390"/>
<path d="M82.1527 12.1995C82.1527 11.0365 82.4365 5.04688 75.8825 5.04688H66.6763V5.17245V12.7892V12.8874L68.9846 14.995V7.41651H75.937C80.1063 7.41651 79.8335 11.3477 79.8335 12.1722C79.8335 12.9966 79.8335 25.7676 79.8335 25.7676V26.6739V36.0051C79.8335 36.0051 73.083 33.5153 71.0365 32.6035C70.4144 32.2814 68.9901 31.7517 68.9901 28.6723V22.8574L68.9628 22.8356L66.6817 20.7553V22.8847V24.9813V27.0125V28.7487C66.6817 33.5044 69.4922 34.5363 70.6272 34.9622C72.701 35.7539 82.1527 39.3521 82.1527 39.3521V12.1995Z" fill="#2D4390"/>
<path d="M84.745 12.1995C84.745 11.0365 84.4612 5.04688 91.0152 5.04688H100.221V5.17245V12.7892V12.8874L97.913 14.995V7.41651H90.9606C86.7914 7.41651 87.0643 11.3477 87.0643 12.1722C87.0643 12.9966 87.0643 25.7676 87.0643 25.7676V26.6739V36.0051C87.0643 36.0051 93.8147 33.5153 95.8612 32.6035C96.4833 32.2814 97.9076 31.7517 97.9076 28.6723V22.8574L97.9349 22.8356L100.216 20.7553V22.8847V24.9813V27.0125V28.7487C100.216 33.5044 97.4055 34.5363 96.2704 34.9622C94.1913 35.7539 84.745 39.3521 84.745 39.3521V12.1995Z" fill="#2D4390"/>
<path d="M73.6833 24.1459H75.1022V18.3911H76.7448V17.1626H76.6357H76.5374H74.4092H72.1663H72.0571V18.3911H73.6833V24.1459Z" fill="#2D4390"/>
<path d="M94.5346 18.3856C94.5346 18.2328 94.5346 17.1735 94.5346 17.1735H94.4637C93.7597 17.1735 93.143 17.2554 92.6082 17.4138C92.5209 17.4411 92.4391 17.4738 92.3681 17.5011C91.9316 17.6595 91.5441 17.8888 91.2276 18.1672C90.8401 18.5167 90.5618 18.9316 90.3926 19.4012C90.2726 19.7779 90.2017 20.2038 90.2017 20.6515C90.2017 21.0883 90.2726 21.4869 90.3926 21.8527C90.4909 22.1039 90.6109 22.3387 90.7692 22.5571C90.8401 22.6663 90.9274 22.7646 91.0093 22.8574C91.0912 22.9557 91.1894 23.0376 91.2876 23.1358H91.2985C91.5987 23.4034 91.9534 23.6218 92.3627 23.7801C92.4609 23.8183 92.5591 23.8511 92.6628 23.8893C93.1867 24.0477 93.7925 24.1296 94.4582 24.1296H94.5292V22.9065H94.4801C94.4691 22.9065 94.4582 22.9065 94.4528 22.9065C94.1908 22.912 93.9125 22.8901 93.6287 22.8246C93.6124 22.8192 93.6015 22.8192 93.5905 22.8137C92.6083 22.5844 91.7024 21.9346 91.7024 20.7007C91.7024 20.6843 91.7024 20.6188 91.7024 20.6024C91.7297 18.3638 94.3382 18.4129 94.5346 18.3856Z" fill="#2D4390"/>
</svg>
