<svg width="43" height="44" viewBox="0 0 43 44" fill="none" xmlns="http://www.w3.org/2000/svg">
<path d="M43 0.875H0C0 0.875 1.70958e-06 27.9334 0.0280184 28.9615C0.0280184 29.1276 0.0280184 29.3096 0.0280184 29.5024C0.0280184 31.7033 0.0168109 36.1746 6.62875 38.5254L9.67696 39.6446C14.6527 41.4439 15.0169 41.567 20.9229 43.6983L21.4944 43.875L22.0659 43.6983C27.9775 41.567 28.3417 41.4439 33.3118 39.6446L36.36 38.5254C42.972 36.18 42.9664 31.7033 42.9608 29.5024C42.9608 29.3043 42.9608 29.1222 42.9608 28.9615C42.9944 27.9334 42.9888 0.875 42.9888 0.875H43ZM41.5487 28.9241C41.5431 29.1008 41.5431 29.2989 41.5431 29.5078C41.5431 31.6444 41.5319 35.2482 35.8501 37.267L32.7963 38.3862C27.9214 40.1748 27.4676 40.3515 21.5897 42.4238L21.5 42.4506H21.4832L21.3935 42.4238C15.5156 40.3515 15.0618 40.1748 10.1869 38.3862L7.13305 37.267C1.45127 35.2482 1.44006 31.639 1.44006 29.5078C1.44006 29.2989 1.44006 29.1008 1.44006 28.9241C1.46247 27.5479 1.45687 6.40128 1.46247 2.22444H41.5207C41.5207 6.40128 41.5207 27.5425 41.5431 28.9241H41.5487Z" fill="black"/>
<path d="M20.1723 12.3238C20.1723 11.1832 20.4637 5.30884 13.7341 5.30884H4.28125V12.9985L6.65146 15.0655V7.63287H13.7901C18.0711 7.63287 17.7909 11.4884 17.7909 12.297V35.6712C17.7909 35.6712 10.8596 33.2294 8.75832 32.3351C8.11954 32.0192 6.65707 31.4997 6.65707 28.4796V22.7766L6.62905 22.7552L4.28685 20.7149V28.5545C4.28685 33.2187 7.17257 34.2308 8.33807 34.6484C10.4673 35.4249 20.1723 38.9538 20.1723 38.9538V12.3238Z" fill="black"/>
<path d="M22.8339 12.3238C22.8339 11.1832 22.5425 5.30884 29.2721 5.30884H38.7249V12.9985L36.3547 15.0655V7.63287H29.2161C24.9351 7.63287 25.2153 11.4884 25.2153 12.297V35.6712C25.2153 35.6712 32.1466 33.2294 34.2479 32.3351C34.8867 32.0192 36.3491 31.4997 36.3491 28.4796V22.7766L36.3771 22.7552L38.7193 20.7149V28.5545C38.7193 33.2187 35.8336 34.2308 34.6681 34.6484C32.5333 35.4249 22.8339 38.9538 22.8339 38.9538V12.3238Z" fill="black"/>
<path d="M11.4745 24.0406H12.9313V18.3965H14.618V17.1917H14.5059H14.405H12.2197H9.91675H9.80469V18.3965H11.4745V24.0406Z" fill="black"/>
<path d="M32.8865 18.3909V17.2021H32.8137C32.0909 17.2021 31.4577 17.2825 30.9086 17.4378C30.8189 17.4645 30.7349 17.4967 30.662 17.5234C30.2138 17.6787 29.8159 17.9036 29.4909 18.1767C29.0931 18.5195 28.8073 18.9264 28.6336 19.387C28.5103 19.7564 28.4375 20.1741 28.4375 20.6132C28.4375 21.0523 28.5103 21.4325 28.6336 21.7913C28.7345 22.0376 28.8578 22.2679 29.0203 22.4821C29.0931 22.5892 29.1827 22.6856 29.2668 22.7766C29.3508 22.873 29.4517 22.9533 29.5526 23.0497H29.5638C29.872 23.3121 30.2362 23.5263 30.6564 23.6816C30.7573 23.7191 30.8581 23.7512 30.9646 23.7887C31.5025 23.944 32.1245 24.0243 32.8081 24.0243H32.8809V22.8248H32.8305C32.8305 22.8248 32.8081 22.8248 32.8025 22.8248C32.5335 22.8248 32.2478 22.8087 31.9564 22.7445C31.9396 22.7445 31.9284 22.7391 31.9172 22.7338C30.9086 22.5089 29.9784 21.8716 29.9784 20.6614C29.9784 20.6454 29.9784 20.5811 29.9784 20.565C30.0064 18.3695 32.6792 18.4177 32.8809 18.3909H32.8865Z" fill="black"/>
</svg>
