<svg width="27" height="26" viewBox="0 0 27 26" fill="none" xmlns="http://www.w3.org/2000/svg">
<path d="M6.75 2.16675L3.375 6.50008V21.6667C3.375 22.2414 3.61205 22.7925 4.03401 23.1988C4.45597 23.6051 5.02826 23.8334 5.625 23.8334H21.375C21.9717 23.8334 22.544 23.6051 22.966 23.1988C23.3879 22.7925 23.625 22.2414 23.625 21.6667V6.50008L20.25 2.16675H6.75Z" stroke="black" stroke-width="2" stroke-linecap="round" stroke-linejoin="round"/>
<path d="M3.375 6.5H23.625" stroke="black" stroke-width="2" stroke-linecap="round" stroke-linejoin="round"/>
<path d="M18 10.8333C18 11.9825 17.5259 13.0847 16.682 13.8974C15.8381 14.71 14.6935 15.1666 13.5 15.1666C12.3065 15.1666 11.1619 14.71 10.318 13.8974C9.47411 13.0847 9 11.9825 9 10.8333" stroke="black" stroke-width="2" stroke-linecap="round" stroke-linejoin="round"/>
</svg>
